<svg width="8" height="10" viewBox="0 0 8 10" fill="none" xmlns="http://www.w3.org/2000/svg">
<path d="M7.33294 4.33313H2.27294L4.47294 2.1398C4.59847 2.01426 4.669 1.844 4.669 1.66646C4.669 1.48893 4.59847 1.31867 4.47294 1.19313C4.3474 1.0676 4.17714 0.99707 3.99961 0.99707C3.82207 0.99707 3.65181 1.0676 3.52627 1.19313L0.192939 4.52646C0.132245 4.58987 0.0846683 4.66463 0.0529387 4.74646C-0.01374 4.90877 -0.01374 5.09082 0.0529387 5.25313C0.0846683 5.33497 0.132245 5.40973 0.192939 5.47313L3.52627 8.80646C3.58825 8.86895 3.66198 8.91855 3.74322 8.95239C3.82446 8.98624 3.9116 9.00366 3.99961 9.00366C4.08761 9.00366 4.17475 8.98624 4.25599 8.95239C4.33723 8.91855 4.41096 8.86895 4.47294 8.80646C4.53542 8.74449 4.58502 8.67075 4.61887 8.58951C4.65271 8.50828 4.67014 8.42114 4.67014 8.33313C4.67014 8.24512 4.65271 8.15799 4.61887 8.07675C4.58502 7.99551 4.53542 7.92177 4.47294 7.8598L2.27294 5.66646H7.33294C7.50975 5.66646 7.67932 5.59623 7.80434 5.4712C7.92937 5.34618 7.99961 5.17661 7.99961 4.9998C7.99961 4.82299 7.92937 4.65342 7.80434 4.52839C7.67932 4.40337 7.50975 4.33313 7.33294 4.33313Z" fill="#3EB1C8"/>
</svg>
