<svg width="16" height="16" viewBox="0 0 16 16" fill="none" xmlns="http://www.w3.org/2000/svg">
<path d="M14.75 0.5H1.25C1.05109 0.5 0.860322 0.579018 0.71967 0.71967C0.579018 0.860322 0.5 1.05109 0.5 1.25V14.75C0.5 14.9489 0.579018 15.1397 0.71967 15.2803C0.860322 15.421 1.05109 15.5 1.25 15.5H14.75C14.9489 15.5 15.1397 15.421 15.2803 15.2803C15.421 15.1397 15.5 14.9489 15.5 14.75V1.25C15.5 1.05109 15.421 0.860322 15.2803 0.71967C15.1397 0.579018 14.9489 0.5 14.75 0.5ZM14 14H2V2H14V14ZM4.25 10.0925H5.75V11.5925C5.75 11.7914 5.82902 11.9822 5.96967 12.1228C6.11032 12.2635 6.30109 12.3425 6.5 12.3425H9.5C9.69891 12.3425 9.88968 12.2635 10.0303 12.1228C10.171 11.9822 10.25 11.7914 10.25 11.5925V10.0925H11.75C11.9489 10.0925 12.1397 10.0135 12.2803 9.87283C12.421 9.73218 12.5 9.54141 12.5 9.3425V6.3425C12.5 6.14359 12.421 5.95282 12.2803 5.81217C12.1397 5.67152 11.9489 5.5925 11.75 5.5925H10.25V4.0925C10.25 3.89359 10.171 3.70282 10.0303 3.56217C9.88968 3.42152 9.69891 3.3425 9.5 3.3425H6.5C6.30109 3.3425 6.11032 3.42152 5.96967 3.56217C5.82902 3.70282 5.75 3.89359 5.75 4.0925V5.5925H4.25C4.05109 5.5925 3.86032 5.67152 3.71967 5.81217C3.57902 5.95282 3.5 6.14359 3.5 6.3425V9.3425C3.5 9.54141 3.57902 9.73218 3.71967 9.87283C3.86032 10.0135 4.05109 10.0925 4.25 10.0925ZM5 7.0925H6.5C6.69891 7.0925 6.88968 7.01348 7.03033 6.87283C7.17098 6.73218 7.25 6.54141 7.25 6.3425V4.8425H8.75V6.3425C8.75 6.54141 8.82902 6.73218 8.96967 6.87283C9.11032 7.01348 9.30109 7.0925 9.5 7.0925H11V8.5925H9.5C9.30109 8.5925 9.11032 8.67152 8.96967 8.81217C8.82902 8.95282 8.75 9.14359 8.75 9.3425V10.8425H7.25V9.3425C7.25 9.14359 7.17098 8.95282 7.03033 8.81217C6.88968 8.67152 6.69891 8.5925 6.5 8.5925H5V7.0925Z" fill="#01426A"/>
</svg>
