<svg width="14" height="14" viewBox="0 0 14 14" fill="none" xmlns="http://www.w3.org/2000/svg">
<path d="M9.29308 3.37341H11.6797L11.1531 3.90674C11.0289 4.03165 10.9592 4.20062 10.9592 4.37674C10.9592 4.55287 11.0289 4.72183 11.1531 4.84674C11.278 4.97091 11.447 5.0406 11.6231 5.0406C11.7992 5.0406 11.9682 4.97091 12.0931 4.84674L13.7597 3.18007C13.8839 3.05517 13.9536 2.8862 13.9536 2.71007C13.9536 2.53395 13.8839 2.36498 13.7597 2.24007L12.0931 0.573408C11.9655 0.464191 11.8015 0.40712 11.6337 0.413601C11.4659 0.420081 11.3068 0.489636 11.188 0.608366C11.0693 0.727096 10.9997 0.886255 10.9933 1.05404C10.9868 1.22182 11.0439 1.38587 11.1531 1.51341L11.6797 2.04007H9.29308C9.11626 2.04007 8.9467 2.11031 8.82167 2.23534C8.69665 2.36036 8.62641 2.52993 8.62641 2.70674C8.62641 2.88355 8.69665 3.05312 8.82167 3.17815C8.9467 3.30317 9.11626 3.37341 9.29308 3.37341ZM12.2931 7.66674C12.1464 7.66674 11.9931 7.62008 11.8464 7.58674C11.5494 7.52129 11.2575 7.4344 10.9731 7.32674C10.6638 7.21423 10.3238 7.22007 10.0186 7.34315C9.71339 7.46622 9.46446 7.69783 9.31974 7.99341L9.17308 8.29341C8.52374 7.93219 7.92706 7.48356 7.39974 6.96007C6.87625 6.43275 6.42762 5.83607 6.06641 5.18674L6.34641 5.00007C6.64199 4.85535 6.8736 4.60643 6.99667 4.3012C7.11975 3.99598 7.12559 3.65602 7.01308 3.34674C6.90722 3.06169 6.82037 2.76994 6.75308 2.47341C6.71974 2.32674 6.69308 2.17341 6.67308 2.02008C6.59212 1.55049 6.34616 1.12524 5.97949 0.820901C5.61282 0.516566 5.14954 0.353147 4.67308 0.360075H2.67308C2.38576 0.357377 2.10124 0.416617 1.83888 0.533762C1.57652 0.650907 1.34248 0.823206 1.1527 1.03893C0.962909 1.25465 0.821831 1.50874 0.739067 1.78388C0.656303 2.05903 0.633795 2.34878 0.673075 2.63341C1.02823 5.42633 2.30376 8.02133 4.29818 10.0085C6.29259 11.9957 8.89221 13.2617 11.6864 13.6067H11.9397C12.4314 13.6075 12.906 13.4271 13.2731 13.1001C13.484 12.9114 13.6525 12.6802 13.7674 12.4216C13.8823 12.163 13.9411 11.883 13.9397 11.6001V9.60007C13.9316 9.137 13.7629 8.69111 13.4626 8.33852C13.1623 7.98593 12.749 7.74849 12.2931 7.66674ZM12.6264 11.6667C12.6263 11.7614 12.606 11.8549 12.5669 11.9412C12.5278 12.0274 12.4709 12.1043 12.3997 12.1667C12.3253 12.2311 12.2381 12.2791 12.144 12.3078C12.0499 12.3365 11.9508 12.3452 11.8531 12.3334C9.35634 12.0133 7.03723 10.8711 5.26155 9.08694C3.48587 7.30281 2.35468 4.9783 2.04641 2.48007C2.0358 2.38242 2.0451 2.28363 2.07374 2.18967C2.10239 2.09571 2.14979 2.00853 2.21308 1.93341C2.27555 1.8623 2.35245 1.8053 2.43866 1.76622C2.52487 1.72714 2.61842 1.70686 2.71308 1.70674H4.71307C4.86811 1.70329 5.01949 1.75399 5.14117 1.85012C5.26285 1.94625 5.34722 2.08179 5.37974 2.23341C5.40641 2.41563 5.43974 2.59563 5.47974 2.77341C5.55676 3.12484 5.65925 3.47019 5.78641 3.80674L4.85308 4.24007C4.77327 4.27669 4.70149 4.32871 4.64185 4.39314C4.5822 4.45757 4.53588 4.53315 4.50552 4.61554C4.47517 4.69793 4.46139 4.7855 4.46497 4.87322C4.46856 4.96095 4.48944 5.0471 4.52641 5.12674C5.48588 7.18191 7.13791 8.83394 9.19308 9.79341C9.35538 9.86009 9.53743 9.86009 9.69974 9.79341C9.78288 9.76367 9.85929 9.71771 9.92452 9.6582C9.98976 9.59869 10.0425 9.52681 10.0797 9.44674L10.4931 8.51341C10.8377 8.63666 11.1895 8.73907 11.5464 8.82008C11.7242 8.86007 11.9042 8.89341 12.0864 8.92008C12.238 8.9526 12.3736 9.03697 12.4697 9.15865C12.5658 9.28033 12.6165 9.43171 12.6131 9.58674L12.6264 11.6667Z" fill="#3EB1C8"/>
</svg>
