<svg width="14" height="14" viewBox="0 0 14 14" fill="none" xmlns="http://www.w3.org/2000/svg">
<path d="M7.66634 6.3335H3.66634C3.48953 6.3335 3.31996 6.40373 3.19494 6.52876C3.06991 6.65378 2.99967 6.82335 2.99967 7.00016C2.99967 7.17697 3.06991 7.34654 3.19494 7.47157C3.31996 7.59659 3.48953 7.66683 3.66634 7.66683H7.66634C7.84315 7.66683 8.01272 7.59659 8.13775 7.47157C8.26277 7.34654 8.33301 7.17697 8.33301 7.00016C8.33301 6.82335 8.26277 6.65378 8.13775 6.52876C8.01272 6.40373 7.84315 6.3335 7.66634 6.3335ZM10.333 3.66683H3.66634C3.48953 3.66683 3.31996 3.73707 3.19494 3.86209C3.06991 3.98712 2.99967 4.15669 2.99967 4.3335C2.99967 4.51031 3.06991 4.67988 3.19494 4.8049C3.31996 4.92992 3.48953 5.00016 3.66634 5.00016H10.333C10.5098 5.00016 10.6794 4.92992 10.8044 4.8049C10.9294 4.67988 10.9997 4.51031 10.9997 4.3335C10.9997 4.15669 10.9294 3.98712 10.8044 3.86209C10.6794 3.73707 10.5098 3.66683 10.333 3.66683ZM11.6663 0.333496H2.33301C1.80257 0.333496 1.29387 0.54421 0.918794 0.919283C0.543722 1.29436 0.333008 1.80306 0.333008 2.3335V9.00016C0.333008 9.5306 0.543722 10.0393 0.918794 10.4144C1.29387 10.7894 1.80257 11.0002 2.33301 11.0002H10.0597L12.5263 13.4735C12.5886 13.5353 12.6625 13.5842 12.7437 13.6173C12.825 13.6505 12.9119 13.6673 12.9997 13.6668C13.0871 13.6691 13.1739 13.6508 13.253 13.6135C13.3748 13.5635 13.479 13.4786 13.5525 13.3694C13.6261 13.2603 13.6657 13.1318 13.6663 13.0002V2.3335C13.6663 1.80306 13.4556 1.29436 13.0806 0.919283C12.7055 0.54421 12.1968 0.333496 11.6663 0.333496ZM12.333 11.3935L10.8063 9.86016C10.744 9.79838 10.6702 9.74949 10.5889 9.71632C10.5077 9.68314 10.4207 9.66632 10.333 9.66683H2.33301C2.1562 9.66683 1.98663 9.59659 1.8616 9.47157C1.73658 9.34654 1.66634 9.17697 1.66634 9.00016V2.3335C1.66634 2.15669 1.73658 1.98712 1.8616 1.86209C1.98663 1.73707 2.1562 1.66683 2.33301 1.66683H11.6663C11.8432 1.66683 12.0127 1.73707 12.1377 1.86209C12.2628 1.98712 12.333 2.15669 12.333 2.3335V11.3935Z" fill="#EFF3F8"/>
</svg>
